# xmcd
#
# Track frame offsets:
#	150
#	11583
#	25015
#	36334
#	50524
#	60966
#	73057
#	83836
#	96814
#	111542
#	124274
#	138015
#
# Disc length: 1958 seconds
# Revision: 0
# Processed by: cddbd v1.5.2PL0 Copyright (c) Steve Scherf et al.
# Submitted via: dBpowerAMP V12.0
#
DISCID=9d07a40c
DTITLE=David Naiditch - Bluegrass Harmonica
DYEAR=2011
DGENRE=Country
TTITLE0=Blackberry Blossom
TTITLE1=The Lovers' Waltz
TTITLE2=Dixie Hoedown
TTITLE3=Whiskey Before Breakfast
TTITLE4=Down Yonder
TTITLE5=St. Anne's Reel
TTITLE6=Jerusalem Ridge
TTITLE7=Gold Rush
TTITLE8=Blue Violet Waltz
TTITLE9=Cherokee Shuffle
TTITLE10=Cuckoo's Nest
TTITLE11=Katie Hill
EXTD=
EXTT0=
EXTT1=
EXTT2=
EXTT3=
EXTT4=
EXTT5=
EXTT6=
EXTT7=
EXTT8=
EXTT9=
EXTT10=
EXTT11=
PLAYORDER=
